<!--?xml version="1.0" standalone="no"?-->
<svg viewBox="0 0 100 100" xmlns="http://www.w3.org/2000/svg" version="1.1">
  <filter id="inset-shadow" x="-50%" y="-50%" width="200%" height="200%">
    <feComponentTransfer in=SourceAlpha>
      <feFuncA type="table" tableValues="1 0" />
    </feComponentTransfer>
    <feOffset dx="0" dy="-10" result="offsetblur" />
    <feFlood flood-color="rgba(0, 0, 0, 0.25)" result="color" />
    <feComposite in2="offsetblur" operator="in" />
    <feComposite in2="SourceAlpha" operator="in" />
    <feMerge>
        <feMergeNode in="SourceGraphic" />
        <feMergeNode />
    </feMerge>
  </filter>
  <path filter="url(#inset-shadow)"
    d="M20.2,-23.6C26.6,-18.7,32.5,-12.8,33.7,-5.9C34.9,0.9,31.5,8.6,27.3,15.7C23.1,22.8,18.1,29.3,10.9,33.4C3.8,37.4,-5.5,39,-13.1,36.1C-20.6,33.3,-26.5,26,-32,17.8C-37.4,9.7,-42.5,0.6,-42.4,-8.8C-42.3,-18.2,-37,-28,-29.1,-32.6C-21.2,-37.2,-10.6,-36.6,-1.8,-34.4C6.9,-32.2,13.8,-28.5,20.2,-23.6Z"
    width="100%" height="100%" transform="translate(50 50)" stroke-width="0"
    style="transition: all 0.3s ease 0s;"></path>
</svg>
